<?xml version="1.0" standalone="no"?>
<!DOCTYPE svg PUBLIC "-//W3C//DTD SVG 20010904//EN"
 "http://www.w3.org/TR/2001/REC-SVG-20010904/DTD/svg10.dtd">
<svg version="1.0" xmlns="http://www.w3.org/2000/svg"
 width="50.000000pt" height="50.000000pt" viewBox="0 0 50.000000 50.000000"
 preserveAspectRatio="xMidYMid meet">

<g transform="translate(0.000000,50.000000) scale(0.100000,-0.100000)"
fill="#000000" stroke="none">
<path d="M205 491 c-28 -12 -52 -41 -60 -73 -7 -27 -6 -28 34 -28 23 0 41 -4
41 -10 0 -5 -18 -10 -40 -10 -22 0 -40 -4 -40 -10 0 -5 18 -10 40 -10 22 0 40
-4 40 -10 0 -5 -18 -10 -40 -10 -22 0 -40 -4 -40 -10 0 -5 18 -10 40 -10 22 0
40 -4 40 -10 0 -5 -19 -10 -41 -10 l-42 0 6 -37 c10 -57 47 -88 107 -88 60 0
97 31 107 88 l6 37 -42 0 c-22 0 -41 5 -41 10 0 6 18 10 40 10 22 0 40 5 40
10 0 6 -18 10 -40 10 -22 0 -40 5 -40 10 0 6 18 10 40 10 22 0 40 5 40 10 0 6
-18 10 -40 10 -22 0 -40 5 -40 10 0 6 18 10 41 10 40 0 41 1 34 28 -14 59 -93
98 -150 73z"/>
<path d="M90 287 c0 -65 36 -128 87 -152 34 -16 42 -25 43 -47 0 -24 4 -28 30
-28 26 0 30 4 30 28 1 22 9 31 43 47 31 15 48 32 65 65 22 45 31 130 12 130
-5 0 -10 -21 -10 -47 0 -116 -115 -189 -208 -133 -46 28 -72 76 -72 133 0 26
-4 47 -10 47 -5 0 -10 -19 -10 -43z"/>
<path d="M132 28 c-7 -7 -12 -16 -12 -20 0 -4 58 -8 130 -8 72 0 130 4 130 8
0 4 -5 13 -12 20 -16 16 -220 16 -236 0z"/>
</g>
</svg>
